<svg xmlns="http://www.w3.org/2000/svg" viewBox="0 0 1000 1000"><path d="M906 357Q916 357 924.5 347.5Q933 338 933 328Q933 320 917.5 304.0Q902 288 880.5 271.0Q859 254 840.5 242.0Q822 230 816 230Q807 230 801.0 236.5Q795 243 795 251Q795 258 802 264Q819 276 845.5 301.5Q872 327 892 350Q898 357 906 357ZM836 414Q846 414 854.5 405.5Q863 397 863 386Q863 378 849.5 363.5Q836 349 817.0 332.5Q798 316 781.5 303.0Q765 290 760 287Q754 284 748 284Q739 284 733.0 291.0Q727 298 727 306Q727 313 733 318Q745 326 763.5 344.0Q782 362 799.0 379.5Q816 397 822 406Q828 414 836 414Z"/></svg>
